<?xml version="1.0" encoding="UTF-8" standalone="no"?>
<!-- Created with Inkscape (http://www.inkscape.org/) -->

<svg
   width="61.821739mm"
   height="13.927699mm"
   viewBox="0 0 61.821739 13.927699"
   version="1.1"
   id="svg5"
   inkscape:version="1.1.2 (0a00cf5339, 2022-02-04)"
   sodipodi:docname="logo_big.svg"
   xmlns:inkscape="http://www.inkscape.org/namespaces/inkscape"
   xmlns:sodipodi="http://sodipodi.sourceforge.net/DTD/sodipodi-0.dtd"
   xmlns="http://www.w3.org/2000/svg"
   xmlns:svg="http://www.w3.org/2000/svg">
  <sodipodi:namedview
     id="namedview7"
     pagecolor="#ffffff"
     bordercolor="#000000"
     borderopacity="0.25"
     inkscape:pageshadow="2"
     inkscape:pageopacity="0.0"
     inkscape:pagecheckerboard="0"
     inkscape:document-units="mm"
     showgrid="false"
     inkscape:zoom="2.5058287"
     inkscape:cx="135.88319"
     inkscape:cy="293.11661"
     inkscape:window-width="1920"
     inkscape:window-height="1020"
     inkscape:window-x="0"
     inkscape:window-y="28"
     inkscape:window-maximized="1"
     inkscape:current-layer="layer1"
     inkscape:showpageshadow="0"
     inkscape:deskcolor="#505050" />
  <defs
     id="defs2" />
  <g
     inkscape:label="Layer 1"
     inkscape:groupmode="layer"
     id="layer1"
     transform="translate(-20.858954,-44.78921)">
    <path
       d="m 41.993192,44.789212 v 1.659471 H 27.081967 v 12.03116 h -1.916293 v -12.03116 h -4.306721 v -1.659471 z"
       style="font-size:19.7556px;font-family:Ubuntu;-inkscape-font-specification:Ubuntu;fill:#f77f00;stroke-width:0.264583"
       id="path11824"
       sodipodi:nodetypes="ccccccccc"
       inkscape:export-filename="/home/siemieniuk/Desktop/University/5 sem/Internet Applications/labs/torneo/frontend/public/logo_bin.png"
       inkscape:export-xdpi="96"
       inkscape:export-ydpi="96" />
    <path
       id="path11826"
       style="font-size:19.7556px;font-family:Ubuntu;-inkscape-font-specification:Ubuntu;fill:#f77f00;stroke-width:0.999999"
       d="m 134.40039,181.51367 c -1.386,0.245 -2.70875,0.64898 -3.96875,1.20899 -2.24,0.94578 -4.18155,2.31346 -5.82422,4.10546 -1.59289,1.79201 -2.83642,3.95743 -3.73242,6.4961 -0.896,2.48889 -1.34375,5.25261 -1.34375,8.28906 0,3.08623 0.44775,5.87243 1.34375,8.36133 0.896,2.48889 2.13953,4.62987 3.73242,6.42187 1.64267,1.79201 3.58422,3.18609 5.82422,4.18164 1.26058,0.53225 2.58401,0.91377 3.9707,1.14649 v -6.33399 c -1.86154,-0.58179 -3.43388,-1.6885 -4.71679,-3.32421 -1.94134,-2.58845 -2.91211,-6.07267 -2.91211,-10.45313 0,-4.38045 0.97077,-7.84023 2.91211,-10.3789 1.28291,-1.6678 2.85525,-2.79743 4.71679,-3.39063 v -6.33008 c -6.3e-4,1.1e-4 -0.001,-1.1e-4 -0.002,0 z m 6.69531,0 v 6.33203 c 1.84614,0.59399 3.39378,1.72361 4.64258,3.38868 1.99112,2.53867 2.98633,5.99845 2.98633,10.3789 0,4.38046 -0.99521,7.86468 -2.98633,10.45313 -1.2488,1.63304 -2.79644,2.7397 -4.64258,3.32226 v 6.33594 c 1.3867,-0.23272 2.71013,-0.61424 3.97071,-1.14649 2.24,-0.99555 4.1571,-2.38963 5.75,-4.18164 1.64267,-1.792 2.91063,-3.93298 3.80664,-6.42187 0.896,-2.4889 1.34375,-5.2751 1.34375,-8.36133 0,-3.03645 -0.44775,-5.80017 -1.34375,-8.28906 -0.89601,-2.53867 -2.16397,-4.70409 -3.80664,-6.4961 -1.5929,-1.792 -3.51,-3.15968 -5.75,-4.10546 -1.26058,-0.56026 -2.58402,-0.96402 -3.97071,-1.20899 z"
       inkscape:export-filename="/home/siemieniuk/Desktop/University/5 sem/Internet Applications/labs/torneo/frontend/public/logo_bin.png"
       inkscape:export-xdpi="96"
       inkscape:export-ydpi="96"
       transform="scale(0.26458333)" />
    <path
       id="path11826-0"
       style="font-size:19.7556px;font-family:Ubuntu;-inkscape-font-specification:Ubuntu;fill:#f77f00;stroke-width:0.264583"
       d="m 76.974576,47.840698 c -0.366712,0.06482 -0.71669,0.17171 -1.050065,0.319879 -0.592666,0.250237 -1.106368,0.612103 -1.540991,1.086236 -0.421452,0.474136 -0.75047,1.04707 -0.987536,1.71876 -0.237067,0.658519 -0.355534,1.389753 -0.355534,2.193147 0,0.816565 0.118467,1.553747 0.355534,2.212269 0.237066,0.658518 0.566084,1.224986 0.987536,1.699119 0.434623,0.474136 0.948325,0.842987 1.540991,1.106393 0.333529,0.140824 0.683686,0.241768 1.050581,0.303342 v -1.675869 c -0.492532,-0.153931 -0.908547,-0.446748 -1.247984,-0.87953 -0.513646,-0.684861 -0.770495,-1.606727 -0.770495,-2.765724 0,-1.158994 0.256849,-2.074394 0.770495,-2.746084 0.339437,-0.441272 0.755452,-0.740153 1.247984,-0.897104 v -1.674834 c -1.66e-4,2.9e-5 -2.64e-4,-2.9e-5 -5.29e-4,0 z m 1.771468,0 v 1.67535 c 0.488458,0.15716 0.897937,0.456038 1.228349,0.896588 0.526817,0.67169 0.790133,1.58709 0.790133,2.746084 0,1.158997 -0.263316,2.080863 -0.790133,2.765724 -0.330412,0.432075 -0.739891,0.724879 -1.228349,0.879015 v 1.676384 c 0.366898,-0.06157 0.717055,-0.162518 1.050584,-0.303342 0.592666,-0.263406 1.099899,-0.632257 1.521354,-1.106393 0.434623,-0.474133 0.770104,-1.040601 1.007173,-1.699119 0.237067,-0.658522 0.355534,-1.395704 0.355534,-2.212269 0,-0.803394 -0.118467,-1.534628 -0.355534,-2.193147 -0.237069,-0.67169 -0.57255,-1.244624 -1.007173,-1.71876 -0.421455,-0.474133 -0.928688,-0.835999 -1.521354,-1.086236 -0.333529,-0.148236 -0.683689,-0.255064 -1.050584,-0.319879 z"
       inkscape:export-filename="/home/siemieniuk/Desktop/University/5 sem/Internet Applications/labs/torneo/frontend/public/logo.png"
       inkscape:export-xdpi="96"
       inkscape:export-ydpi="96" />
    <path
       d="m 47.647479,47.98962 q 0.237068,0 0.533402,0.03951 0.316089,0.01976 0.612423,0.07902 0.296334,0.03951 0.533401,0.09878 0.256823,0.03951 0.375357,0.07902 l -0.31609,1.600203 q -0.217311,-0.07902 -0.730957,-0.1778 -0.49389,-0.118534 -1.284114,-0.118534 -0.513646,0 -1.027291,0.118534 -0.49389,0.09878 -0.651935,0.138289 v 8.633197 H 43.854404 V 48.64155 q 0.651935,-0.237067 1.619959,-0.434623 0.968025,-0.217311 2.173116,-0.217311 z"
       style="font-size:19.7556px;font-family:Ubuntu;-inkscape-font-specification:Ubuntu;fill:#f77f00;stroke-width:0.264583"
       id="path11828"
       inkscape:export-filename="/home/siemieniuk/Desktop/University/5 sem/Internet Applications/labs/torneo/frontend/public/logo_bin.png"
       inkscape:export-xdpi="96"
       inkscape:export-ydpi="96" />
    <path
       d="m 51.480059,48.503265 q 0.632179,-0.158045 1.679226,-0.335845 1.047046,-0.1778 2.410183,-0.1778 1.224847,0 2.034827,0.3556 0.809979,0.335846 1.284114,0.968025 0.49389,0.612423 0.691446,1.48167 0.197556,0.869246 0.197556,1.916293 v 5.768635 H 57.94014 V 53.10632 q 0,-0.948269 -0.138289,-1.619959 -0.118534,-0.671691 -0.414868,-1.086558 -0.296334,-0.414868 -0.790224,-0.592668 -0.49389,-0.197556 -1.224847,-0.197556 -0.296334,0 -0.612424,0.01976 -0.316089,0.01976 -0.612423,0.05927 -0.276579,0.01976 -0.513646,0.05927 -0.217312,0.03951 -0.31609,0.05927 v 8.672708 h -1.83727 z"
       style="font-size:19.7556px;font-family:Ubuntu;-inkscape-font-specification:Ubuntu;fill:#f77f00;stroke-width:0.264583"
       id="path11830"
       inkscape:export-filename="/home/siemieniuk/Desktop/University/5 sem/Internet Applications/labs/torneo/frontend/public/logo_bin.png"
       inkscape:export-xdpi="96"
       inkscape:export-ydpi="96" />
    <path
       d="m 62.246849,53.363143 q 0,-1.363137 0.395112,-2.370672 0.395112,-1.027291 1.047047,-1.698982 0.651934,-0.67169 1.501425,-1.007535 0.849491,-0.335846 1.738493,-0.335846 2.074338,0 3.180652,1.30387 1.106313,1.284114 1.106313,3.931364 0,0.118534 0,0.31609 0,0.1778 -0.01976,0.335845 h -7.032994 q 0.118534,1.600204 0.928513,2.429939 0.80998,0.829735 2.528717,0.829735 0.968024,0 1.619959,-0.158045 0.671691,-0.1778 1.007536,-0.335845 l 0.256823,1.540937 q -0.335846,0.1778 -1.185336,0.375356 -0.829736,0.197556 -1.896538,0.197556 -1.343381,0 -2.331161,-0.395112 -0.968024,-0.414867 -1.600203,-1.126069 -0.63218,-0.711201 -0.948269,-1.679226 -0.296334,-0.98778 -0.296334,-2.15336 z m 7.052749,-1.007536 q 0.01976,-1.244603 -0.632179,-2.034827 -0.632179,-0.809979 -1.758249,-0.809979 -0.632179,0 -1.126069,0.256823 -0.474134,0.237067 -0.809979,0.632179 -0.335846,0.395112 -0.533402,0.908757 -0.1778,0.513646 -0.237067,1.047047 z"
       style="font-size:19.7556px;font-family:Ubuntu;-inkscape-font-specification:Ubuntu;fill:#f77f00;stroke-width:0.264583"
       id="path11832"
       inkscape:export-filename="/home/siemieniuk/Desktop/University/5 sem/Internet Applications/labs/torneo/frontend/public/logo_bin.png"
       inkscape:export-xdpi="96"
       inkscape:export-ydpi="96" />
  </g>
</svg>
